<?xml version="1.0" encoding="utf-8"?>
<!-- Generator: Adobe Illustrator 21.1.0, SVG Export Plug-In . SVG Version: 6.00 Build 0)  -->
<svg version="1.1" id="Layer_1" xmlns="http://www.w3.org/2000/svg" xmlns:xlink="http://www.w3.org/1999/xlink" x="0px" y="0px"
	 viewBox="0 0 104.9 50" style="enable-background:new 0 0 104.9 50;" xml:space="preserve">
<style type="text/css">
	.st0{fill:#ED1A3B;}
	.st1{fill-rule:evenodd;clip-rule:evenodd;fill:#ED1A3B;}
</style>
<g>
	<path class="st0" d="M10.1,25.5L10.1,25.5h1.7c2.8,0,4.1-1.8,4.1-5.5c0-3.4-1.4-5.2-4.1-5.2h-1.7V25.5z M2.5,38.7V12.4h11.3
		c6.4,0,9.6,2.6,9.6,7.7c0,5.2-3.6,7.8-10.7,7.8h-2.6v10.8H2.5z"/>
	<path class="st0" d="M26.9,30.4L26.9,30.4h6.4l-3.1-11.6L26.9,30.4z M36,12.4l7.3,26.3h-7.7L34.1,33h-7.9l-1.7,5.7h-3l7.8-26.3H36z
		"/>
	<polygon class="st0" points="62.5,12.4 56.1,29 56.1,38.7 48.5,38.7 48.5,29 41.4,12.4 49.3,12.4 54.7,25.1 59.5,12.4 	"/>
	<path class="st1" d="M83,3.9c10,0,18.1,8.1,18.1,18.1S93,40.2,83,40.2c-0.4,0-0.9,0-1.3,0l2-1.9c8.6-0.4,15.5-7.5,15.5-16.2
		c0-9-7.3-16.2-16.2-16.2c-9,0-16.2,7.3-16.2,16.2c0,5.3,2.5,10,6.4,12.9l0,2.3c-5-3.2-8.3-8.8-8.3-15.2C64.8,12,72.9,3.9,83,3.9"/>
	<polygon class="st1" points="84.7,34.7 84.6,8.3 71.4,20.5 75.3,19.6 75.3,43.6 	"/>
	<path d="M99.7,5.2V2.4h0.5l0.9,2.3h0l0.9-2.3h0.5v2.8h-0.3V3.4c0-0.2,0-0.4,0-0.7h0l-1,2.5h-0.3L100,2.8h0c0,0.2,0,0.4,0,0.7v1.8
		H99.7z M97.2,2.7V2.4h2.1v0.3h-0.9v2.5h-0.3V2.7H97.2z"/>
	<path d="M70.8,45.8l0.4-0.5l0.9-1h1l-1.2,1.4l1.3,1.8h-1l-0.9-1.3l-0.4,0.3v1H70v-4.4h0.9v1.9L70.8,45.8L70.8,45.8z M69.1,44.3
		c0.1,0,0.2,0,0.3,0l-0.1,0.8c-0.1,0-0.2,0-0.3,0c-0.3,0-0.5,0.1-0.6,0.2c-0.2,0.1-0.2,0.3-0.2,0.6v1.6h-0.9v-3.1H68l0.1,0.5h0
		c0.1-0.2,0.2-0.3,0.4-0.4C68.7,44.4,68.9,44.3,69.1,44.3z M66.7,45.9c0,0.5-0.1,0.9-0.4,1.2c-0.3,0.3-0.6,0.4-1.1,0.4
		c-0.3,0-0.6-0.1-0.8-0.2c-0.2-0.1-0.4-0.3-0.5-0.6c-0.1-0.2-0.2-0.5-0.2-0.9c0-0.5,0.1-0.9,0.4-1.2c0.3-0.3,0.6-0.4,1.1-0.4
		c0.3,0,0.6,0.1,0.8,0.2c0.2,0.1,0.4,0.3,0.5,0.6C66.6,45.3,66.7,45.6,66.7,45.9z M64.5,45.9c0,0.3,0.1,0.5,0.2,0.7
		c0.1,0.2,0.3,0.2,0.5,0.2c0.2,0,0.4-0.1,0.5-0.2c0.1-0.2,0.1-0.4,0.1-0.7c0-0.3,0-0.5-0.2-0.7c-0.1-0.2-0.3-0.2-0.5-0.2
		c-0.2,0-0.4,0.1-0.5,0.2C64.5,45.4,64.5,45.6,64.5,45.9z M61.5,47.5l-0.2-1.1L60.9,45h0l-0.6,2.5h-0.9l-0.9-3.1h0.9l0.4,1.4
		c0.1,0.2,0.1,0.6,0.2,1h0c0-0.1,0-0.4,0.1-0.7l0-0.2l0.4-1.5h0.9l0.4,1.5c0,0,0,0.1,0,0.2c0,0.1,0,0.2,0,0.3c0,0.1,0,0.2,0,0.3
		c0,0.1,0,0.2,0,0.2h0c0-0.1,0-0.3,0.1-0.6c0-0.2,0.1-0.4,0.1-0.5l0.4-1.4h0.8l-0.9,3.1H61.5z M57.7,46.9c0.2,0,0.3,0,0.5-0.1v0.6
		c-0.2,0.1-0.5,0.1-0.8,0.1c-0.3,0-0.6-0.1-0.7-0.3c-0.2-0.2-0.2-0.4-0.2-0.8V45h-0.4v-0.4l0.5-0.3l0.2-0.7h0.5v0.7h0.9V45h-0.9v1.5
		c0,0.1,0,0.2,0.1,0.3C57.5,46.8,57.6,46.9,57.7,46.9z M54.4,47.6c-0.5,0-0.9-0.1-1.2-0.4c-0.3-0.3-0.4-0.7-0.4-1.2
		c0-0.5,0.1-0.9,0.4-1.2c0.3-0.3,0.6-0.4,1.1-0.4c0.4,0,0.8,0.1,1,0.4c0.2,0.3,0.4,0.6,0.4,1v0.4h-2c0,0.2,0.1,0.4,0.2,0.6
		c0.1,0.1,0.3,0.2,0.6,0.2c0.2,0,0.4,0,0.5-0.1c0.2,0,0.3-0.1,0.5-0.2v0.7c-0.2,0.1-0.3,0.1-0.5,0.2C54.9,47.5,54.7,47.6,54.4,47.6z
		 M54.3,44.9c-0.2,0-0.3,0.1-0.4,0.2c-0.1,0.1-0.2,0.3-0.2,0.5h1.2c0-0.2-0.1-0.4-0.2-0.5C54.6,45,54.5,44.9,54.3,44.9z M52.1,47.5
		H51l-1.8-3.1h0c0,0.5,0.1,0.9,0.1,1.2v1.9h-0.8v-4.1h1.1l1.8,3.1h0c0-0.5,0-0.9,0-1.1v-1.9h0.8V47.5z M45.1,46l-0.3,0
		c-0.2,0-0.4,0.1-0.6,0.1c-0.1,0.1-0.2,0.2-0.2,0.4c0,0.2,0.1,0.4,0.4,0.4c0.2,0,0.4-0.1,0.5-0.2c0.1-0.1,0.2-0.3,0.2-0.5V46z
		 M45.4,47.5l-0.2-0.4h0c-0.1,0.2-0.3,0.3-0.4,0.4c-0.2,0.1-0.3,0.1-0.6,0.1c-0.3,0-0.5-0.1-0.7-0.3c-0.2-0.2-0.3-0.4-0.3-0.7
		c0-0.3,0.1-0.6,0.3-0.7c0.2-0.2,0.6-0.2,1.1-0.3l0.5,0v-0.1c0-0.3-0.2-0.5-0.5-0.5c-0.2,0-0.5,0.1-0.9,0.2l-0.3-0.6
		c0.4-0.2,0.8-0.3,1.2-0.3c0.4,0,0.7,0.1,1,0.3c0.2,0.2,0.3,0.5,0.3,0.8v2.1H45.4z M42.9,47.5h-1l-1.1-1.7L40.5,46v1.5h-0.9v-4.1
		h0.9v1.9l0.3-0.5l1.1-1.4h1l-1.4,1.8L42.9,47.5z M37.2,47.5h-0.9v-1.8c0-0.2,0-0.4-0.1-0.5C36.2,45,36,45,35.9,45
		c-0.2,0-0.4,0.1-0.5,0.2c-0.1,0.2-0.2,0.4-0.2,0.8v1.5h-0.9v-3.1H35l0.1,0.4h0c0.1-0.2,0.2-0.3,0.4-0.3c0.2-0.1,0.4-0.1,0.6-0.1
		c0.4,0,0.6,0.1,0.8,0.3c0.2,0.2,0.3,0.5,0.3,0.9V47.5z M33.6,45.9c0,0.5-0.1,0.9-0.4,1.2c-0.3,0.3-0.6,0.4-1.1,0.4
		c-0.3,0-0.6-0.1-0.8-0.2c-0.2-0.1-0.4-0.3-0.5-0.6c-0.1-0.2-0.2-0.5-0.2-0.9c0-0.5,0.1-0.9,0.4-1.2c0.3-0.3,0.6-0.4,1.1-0.4
		c0.3,0,0.6,0.1,0.8,0.2c0.2,0.1,0.4,0.3,0.5,0.6C33.6,45.3,33.6,45.6,33.6,45.9z M31.5,45.9c0,0.3,0.1,0.5,0.2,0.7
		c0.1,0.2,0.3,0.2,0.5,0.2c0.2,0,0.4-0.1,0.5-0.2c0.1-0.2,0.1-0.4,0.1-0.7c0-0.3,0-0.5-0.2-0.7c-0.1-0.2-0.3-0.2-0.5-0.2
		c-0.2,0-0.4,0.1-0.5,0.2C31.5,45.4,31.5,45.6,31.5,45.9z M30,44.3c0.1,0,0.2,0,0.3,0l-0.1,0.8c-0.1,0-0.2,0-0.3,0
		c-0.3,0-0.5,0.1-0.6,0.2c-0.2,0.1-0.2,0.3-0.2,0.6v1.6h-0.9v-3.1h0.6l0.1,0.5h0c0.1-0.2,0.2-0.3,0.4-0.4
		C29.7,44.4,29.8,44.3,30,44.3z M26.6,46l-0.3,0c-0.2,0-0.4,0.1-0.6,0.1c-0.1,0.1-0.2,0.2-0.2,0.4c0,0.2,0.1,0.4,0.4,0.4
		c0.2,0,0.4-0.1,0.5-0.2c0.1-0.1,0.2-0.3,0.2-0.5V46z M26.8,47.5l-0.2-0.4h0c-0.1,0.2-0.3,0.3-0.4,0.4c-0.2,0.1-0.3,0.1-0.6,0.1
		c-0.3,0-0.5-0.1-0.7-0.3c-0.2-0.2-0.3-0.4-0.3-0.7c0-0.3,0.1-0.6,0.3-0.7c0.2-0.2,0.6-0.2,1.1-0.3l0.5,0v-0.1
		c0-0.3-0.2-0.5-0.5-0.5c-0.2,0-0.5,0.1-0.9,0.2l-0.3-0.6c0.4-0.2,0.8-0.3,1.2-0.3c0.4,0,0.7,0.1,1,0.3c0.2,0.2,0.3,0.5,0.3,0.8v2.1
		H26.8z M22.5,46.9c0.2,0,0.4-0.1,0.5-0.2c0.1-0.1,0.2-0.3,0.2-0.6v-0.1c0-0.3-0.1-0.6-0.2-0.7c-0.1-0.1-0.3-0.2-0.5-0.2
		c-0.2,0-0.3,0.1-0.4,0.2c-0.1,0.2-0.2,0.4-0.2,0.7c0,0.3,0.1,0.5,0.2,0.7C22.1,46.8,22.3,46.9,22.5,46.9z M22.2,47.6
		c-0.4,0-0.7-0.1-0.9-0.4c-0.2-0.3-0.3-0.7-0.3-1.2c0-0.5,0.1-0.9,0.3-1.2c0.2-0.3,0.5-0.4,0.9-0.4c0.4,0,0.7,0.2,0.9,0.5h0
		c0-0.2-0.1-0.4-0.1-0.6v-1h0.9v4.4h-0.7l-0.2-0.4h0C22.9,47.4,22.6,47.6,22.2,47.6z M20.3,47.5h-0.9v-1.8c0-0.2,0-0.4-0.1-0.5
		C19.3,45,19.1,45,18.9,45c-0.2,0-0.4,0.1-0.5,0.2c-0.1,0.2-0.2,0.4-0.2,0.8v1.5h-0.9v-3.1h0.7l0.1,0.4h0c0.1-0.2,0.2-0.3,0.4-0.3
		c0.2-0.1,0.4-0.1,0.6-0.1c0.4,0,0.6,0.1,0.8,0.3c0.2,0.2,0.3,0.5,0.3,0.9V47.5z M15.7,46l-0.3,0c-0.2,0-0.4,0.1-0.6,0.1
		c-0.1,0.1-0.2,0.2-0.2,0.4c0,0.2,0.1,0.4,0.4,0.4c0.2,0,0.4-0.1,0.5-0.2c0.1-0.1,0.2-0.3,0.2-0.5V46z M15.9,47.5l-0.2-0.4h0
		c-0.1,0.2-0.3,0.3-0.4,0.4c-0.2,0.1-0.3,0.1-0.6,0.1c-0.3,0-0.5-0.1-0.7-0.3c-0.2-0.2-0.3-0.4-0.3-0.7c0-0.3,0.1-0.6,0.3-0.7
		c0.2-0.2,0.6-0.2,1.1-0.3l0.5,0v-0.1c0-0.3-0.2-0.5-0.5-0.5c-0.2,0-0.5,0.1-0.9,0.2L14,44.6c0.4-0.2,0.8-0.3,1.2-0.3
		c0.4,0,0.7,0.1,1,0.3c0.2,0.2,0.3,0.5,0.3,0.8v2.1H15.9z M11.2,45.8l0.4-0.5l0.9-1h1l-1.2,1.4l1.3,1.8h-1l-0.9-1.3l-0.4,0.3v1h-0.9
		v-4.4h0.9v1.9L11.2,45.8L11.2,45.8z M8.8,47.5l-0.1-0.4h0c-0.1,0.1-0.2,0.3-0.4,0.3c-0.2,0.1-0.4,0.1-0.6,0.1
		c-0.4,0-0.6-0.1-0.8-0.3c-0.2-0.2-0.3-0.5-0.3-0.9v-2h0.9v1.8c0,0.2,0,0.4,0.1,0.5c0.1,0.1,0.2,0.2,0.4,0.2c0.2,0,0.4-0.1,0.5-0.2
		c0.1-0.2,0.2-0.4,0.2-0.8v-1.5h0.9v3.1H8.8z M4.9,45.4c0-0.9-0.4-1.3-1.2-1.3H3.3v2.7h0.4C4.5,46.8,4.9,46.3,4.9,45.4z M5.8,45.4
		c0,0.7-0.2,1.2-0.6,1.5c-0.4,0.4-0.9,0.5-1.7,0.5H2.4v-4.1h1.3c0.7,0,1.2,0.2,1.6,0.5C5.7,44.3,5.8,44.8,5.8,45.4z"/>
</g>
</svg>
